<svg xmlns="http://www.w3.org/2000/svg" xmlns:xlink="http://www.w3.org/1999/xlink" width="1080" zoomAndPan="magnify" viewBox="0 0 810 809.999993" height="1080" preserveAspectRatio="xMidYMid meet" version="1.0"><defs><g/></defs><g fill="#ff967b" fill-opacity="1"><g transform="translate(48.943057, 446.221984)"><g><path d="M 33.921875 1.125 C 29.921875 1.125 26.242188 0.597656 22.890625 -0.453125 C 19.535156 -1.503906 16.648438 -3.03125 14.234375 -5.03125 C 11.828125 -7.03125 9.925781 -9.421875 8.53125 -12.203125 C 7.132812 -14.992188 6.363281 -18.125 6.21875 -21.59375 L 20.6875 -21.59375 C 20.832031 -18.351562 22.128906 -15.804688 24.578125 -13.953125 C 27.035156 -12.109375 30.257812 -11.1875 34.25 -11.1875 C 38.394531 -11.1875 41.613281 -12.128906 43.90625 -14.015625 C 46.207031 -15.898438 47.359375 -18.425781 47.359375 -21.59375 C 47.359375 -24.382812 46.492188 -26.796875 44.765625 -28.828125 C 43.035156 -30.859375 40.585938 -32.363281 37.421875 -33.34375 L 28.828125 -35.828125 C 14.804688 -39.671875 7.796875 -47.738281 7.796875 -60.03125 C 7.796875 -63.414062 8.414062 -66.503906 9.65625 -69.296875 C 10.90625 -72.085938 12.660156 -74.476562 14.921875 -76.46875 C 17.179688 -78.46875 19.929688 -79.992188 23.171875 -81.046875 C 26.410156 -82.109375 30.066406 -82.640625 34.140625 -82.640625 C 41.828125 -82.640625 48.023438 -80.660156 52.734375 -76.703125 C 57.441406 -72.742188 59.984375 -67.296875 60.359375 -60.359375 L 46.015625 -60.359375 C 45.859375 -63.453125 44.648438 -65.863281 42.390625 -67.59375 C 40.128906 -69.332031 37.265625 -70.203125 33.796875 -70.203125 C 30.109375 -70.203125 27.207031 -69.332031 25.09375 -67.59375 C 22.988281 -65.863281 21.9375 -63.566406 21.9375 -60.703125 C 21.9375 -55.273438 25.210938 -51.617188 31.765625 -49.734375 L 40.8125 -47.25 C 47.59375 -45.363281 52.753906 -42.289062 56.296875 -38.03125 C 59.835938 -33.78125 61.609375 -28.523438 61.609375 -22.265625 C 61.609375 -18.722656 60.945312 -15.519531 59.625 -12.65625 C 58.3125 -9.789062 56.445312 -7.34375 54.03125 -5.3125 C 51.625 -3.28125 48.722656 -1.695312 45.328125 -0.5625 C 41.941406 0.5625 38.140625 1.125 33.921875 1.125 Z M 33.921875 1.125 "/></g></g></g><g fill="#ff967b" fill-opacity="1"><g transform="translate(113.367668, 446.221984)"><g><path d="M 5.09375 -62.171875 L 22.265625 -62.171875 L 22.265625 -81.390625 L 36.40625 -81.390625 L 36.40625 -62.171875 L 60.03125 -62.171875 L 60.03125 -49.40625 L 36.40625 -49.40625 L 36.40625 -19.21875 C 36.40625 -17.257812 36.988281 -15.695312 38.15625 -14.53125 C 39.320312 -13.363281 40.960938 -12.78125 43.078125 -12.78125 L 58.890625 -12.78125 L 58.890625 0 L 42.046875 0 C 35.941406 0 31.117188 -1.734375 27.578125 -5.203125 C 24.035156 -8.671875 22.265625 -13.34375 22.265625 -19.21875 L 22.265625 -49.40625 L 5.09375 -49.40625 Z M 5.09375 -62.171875 "/></g></g></g><g fill="#ff967b" fill-opacity="1"><g transform="translate(177.792278, 446.221984)"><g><path d="M 8.484375 -62.171875 L 22.71875 -62.171875 L 22.71875 -23.28125 C 22.71875 -15.21875 26.453125 -11.1875 33.921875 -11.1875 C 41.453125 -11.1875 45.21875 -15.21875 45.21875 -23.28125 L 45.21875 -62.171875 L 59.34375 -62.171875 L 59.34375 -23.28125 C 59.34375 -15.519531 57.097656 -9.507812 52.609375 -5.25 C 48.128906 -1 41.898438 1.125 33.921875 1.125 C 25.847656 1.125 19.585938 -1.019531 15.140625 -5.3125 C 10.703125 -9.601562 8.484375 -15.59375 8.484375 -23.28125 Z M 8.484375 -62.171875 "/></g></g></g><g fill="#ffb13b" fill-opacity="1"><g transform="translate(242.218751, 446.221984)"><g><path d="M 6.890625 -39 C 6.890625 -42.769531 7.398438 -46.140625 8.421875 -49.109375 C 9.441406 -52.085938 10.890625 -54.632812 12.765625 -56.75 C 14.648438 -58.863281 16.910156 -60.484375 19.546875 -61.609375 C 22.191406 -62.742188 25.097656 -63.3125 28.265625 -63.3125 C 32.785156 -63.3125 36.515625 -62.253906 39.453125 -60.140625 C 42.390625 -58.023438 44.195312 -55.125 44.875 -51.4375 L 46.015625 -51.4375 C 45.929688 -52.71875 45.851562 -54 45.78125 -55.28125 C 45.632812 -56.40625 45.539062 -57.585938 45.5 -58.828125 C 45.457031 -60.078125 45.4375 -61.191406 45.4375 -62.171875 L 45.4375 -82.53125 L 59.578125 -82.53125 L 59.578125 0 L 46.015625 0 L 46.015625 -10.859375 L 44.875 -10.859375 C 44.195312 -7.085938 42.390625 -4.144531 39.453125 -2.03125 C 36.515625 0.0703125 32.785156 1.125 28.265625 1.125 C 25.097656 1.125 22.191406 0.5625 19.546875 -0.5625 C 16.910156 -1.695312 14.648438 -3.335938 12.765625 -5.484375 C 10.890625 -7.628906 9.441406 -10.226562 8.421875 -13.28125 C 7.398438 -16.332031 6.890625 -19.742188 6.890625 -23.515625 Z M 33.34375 -11.1875 C 37.039062 -11.1875 39.976562 -12.316406 42.15625 -14.578125 C 44.34375 -16.835938 45.4375 -19.816406 45.4375 -23.515625 L 45.4375 -38.65625 C 45.4375 -42.425781 44.328125 -45.441406 42.109375 -47.703125 C 39.890625 -49.960938 36.96875 -51.09375 33.34375 -51.09375 C 29.5 -51.09375 26.484375 -49.976562 24.296875 -47.75 C 22.117188 -45.53125 21.03125 -42.5 21.03125 -38.65625 L 21.03125 -23.859375 C 21.03125 -20.015625 22.117188 -16.941406 24.296875 -14.640625 C 26.484375 -12.335938 29.5 -11.1875 33.34375 -11.1875 Z M 33.34375 -11.1875 "/></g></g></g><g fill="#ffb13b" fill-opacity="1"><g transform="translate(306.643361, 446.221984)"><g><path d="M 33.921875 1.125 C 29.847656 1.125 26.132812 0.539062 22.78125 -0.625 C 19.425781 -1.789062 16.578125 -3.425781 14.234375 -5.53125 C 11.898438 -7.644531 10.09375 -10.207031 8.8125 -13.21875 C 7.53125 -16.238281 6.890625 -19.59375 6.890625 -23.28125 L 6.890625 -39 C 6.890625 -42.695312 7.53125 -46.050781 8.8125 -49.0625 C 10.09375 -52.070312 11.898438 -54.632812 14.234375 -56.75 C 16.578125 -58.863281 19.425781 -60.484375 22.78125 -61.609375 C 26.132812 -62.742188 29.847656 -63.3125 33.921875 -63.3125 C 37.984375 -63.3125 41.671875 -62.722656 44.984375 -61.546875 C 48.304688 -60.378906 51.132812 -58.738281 53.46875 -56.625 C 55.800781 -54.519531 57.609375 -51.957031 58.890625 -48.9375 C 60.171875 -45.925781 60.8125 -42.578125 60.8125 -38.890625 L 60.8125 -27.578125 L 20.90625 -27.578125 L 20.90625 -23.515625 C 20.90625 -19.367188 22.054688 -16.125 24.359375 -13.78125 C 26.660156 -11.445312 29.847656 -10.28125 33.921875 -10.28125 C 37.003906 -10.28125 39.617188 -10.75 41.765625 -11.6875 C 43.921875 -12.632812 45.445312 -14.015625 46.34375 -15.828125 L 60.25 -15.828125 C 59.570312 -13.265625 58.441406 -10.925781 56.859375 -8.8125 C 55.273438 -6.707031 53.332031 -4.921875 51.03125 -3.453125 C 48.738281 -1.984375 46.140625 -0.851562 43.234375 -0.0625 C 40.335938 0.726562 37.234375 1.125 33.921875 1.125 Z M 46.921875 -37.078125 L 46.921875 -38.890625 C 46.921875 -43.035156 45.785156 -46.253906 43.515625 -48.546875 C 41.253906 -50.847656 38.054688 -52 33.921875 -52 C 29.847656 -52 26.660156 -50.847656 24.359375 -48.546875 C 22.054688 -46.253906 20.90625 -43.070312 20.90625 -39 L 20.90625 -37.078125 Z M 46.921875 -37.078125 "/></g></g></g><g fill="#ffb13b" fill-opacity="1"><g transform="translate(371.067972, 446.221984)"><g><path d="M 8.140625 0 L 8.140625 -62.171875 L 21.59375 -62.171875 L 21.59375 -51.4375 L 22.609375 -51.4375 C 23.285156 -55.207031 25.054688 -58.128906 27.921875 -60.203125 C 30.785156 -62.273438 34.476562 -63.3125 39 -63.3125 C 45.257812 -63.3125 50.234375 -61.273438 53.921875 -57.203125 C 57.617188 -53.128906 59.46875 -47.628906 59.46875 -40.703125 L 59.46875 0 L 45.328125 0 L 45.328125 -39 C 45.328125 -42.769531 44.3125 -45.726562 42.28125 -47.875 C 40.25 -50.019531 37.460938 -51.09375 33.921875 -51.09375 C 30.296875 -51.09375 27.445312 -49.976562 25.375 -47.75 C 23.300781 -45.53125 22.265625 -42.5 22.265625 -38.65625 L 22.265625 0 Z M 8.140625 0 "/></g></g></g><g fill="#ffb13b" fill-opacity="1"><g transform="translate(435.492582, 446.221984)"><g><path d="M 5.09375 -62.171875 L 22.265625 -62.171875 L 22.265625 -81.390625 L 36.40625 -81.390625 L 36.40625 -62.171875 L 60.03125 -62.171875 L 60.03125 -49.40625 L 36.40625 -49.40625 L 36.40625 -19.21875 C 36.40625 -17.257812 36.988281 -15.695312 38.15625 -14.53125 C 39.320312 -13.363281 40.960938 -12.78125 43.078125 -12.78125 L 58.890625 -12.78125 L 58.890625 0 L 42.046875 0 C 35.941406 0 31.117188 -1.734375 27.578125 -5.203125 C 24.035156 -8.671875 22.265625 -13.34375 22.265625 -19.21875 L 22.265625 -49.40625 L 5.09375 -49.40625 Z M 5.09375 -62.171875 "/></g></g></g><g fill="#79a5fc" fill-opacity="1"><g transform="translate(499.927635, 446.221984)"><g><path d="M 57.65625 -81.390625 L 57.65625 -68.28125 L 24.078125 -12.65625 L 24.078125 -12.4375 L 32.109375 -12.890625 L 58.890625 -12.890625 L 58.890625 0 L 8.9375 0 L 8.9375 -13 L 42.390625 -68.734375 L 42.390625 -68.953125 L 34.25 -68.5 L 9.828125 -68.5 L 9.828125 -81.390625 Z M 57.65625 -81.390625 "/></g></g></g><g fill="#79a5fc" fill-opacity="1"><g transform="translate(564.352246, 446.221984)"><g><path d="M 21.03125 -23.515625 C 21.03125 -19.742188 22.175781 -16.765625 24.46875 -14.578125 C 26.769531 -12.398438 29.921875 -11.3125 33.921875 -11.3125 C 37.910156 -11.3125 41.050781 -12.398438 43.34375 -14.578125 C 45.644531 -16.765625 46.796875 -19.742188 46.796875 -23.515625 L 46.796875 -38.78125 C 46.796875 -42.539062 45.644531 -45.515625 43.34375 -47.703125 C 41.050781 -49.890625 37.910156 -50.984375 33.921875 -50.984375 C 29.992188 -50.984375 26.863281 -49.890625 24.53125 -47.703125 C 22.195312 -45.515625 21.03125 -42.539062 21.03125 -38.78125 Z M 6.890625 -38.78125 C 6.890625 -42.46875 7.53125 -45.816406 8.8125 -48.828125 C 10.09375 -51.847656 11.921875 -54.429688 14.296875 -56.578125 C 16.671875 -58.722656 19.515625 -60.378906 22.828125 -61.546875 C 26.148438 -62.722656 29.847656 -63.3125 33.921875 -63.3125 C 37.984375 -63.3125 41.671875 -62.722656 44.984375 -61.546875 C 48.304688 -60.378906 51.15625 -58.722656 53.53125 -56.578125 C 55.90625 -54.429688 57.734375 -51.847656 59.015625 -48.828125 C 60.296875 -45.816406 60.9375 -42.46875 60.9375 -38.78125 L 60.9375 -23.515625 C 60.9375 -19.816406 60.296875 -16.441406 59.015625 -13.390625 C 57.734375 -10.335938 55.921875 -7.738281 53.578125 -5.59375 C 51.242188 -3.445312 48.398438 -1.789062 45.046875 -0.625 C 41.691406 0.539062 37.984375 1.125 33.921875 1.125 C 29.847656 1.125 26.148438 0.523438 22.828125 -0.671875 C 19.515625 -1.878906 16.671875 -3.554688 14.296875 -5.703125 C 11.921875 -7.859375 10.09375 -10.441406 8.8125 -13.453125 C 7.53125 -16.460938 6.890625 -19.816406 6.890625 -23.515625 Z M 6.890625 -38.78125 "/></g></g></g><g fill="#79a5fc" fill-opacity="1"><g transform="translate(628.776856, 446.221984)"><g><path d="M 8.140625 0 L 8.140625 -62.171875 L 21.59375 -62.171875 L 21.59375 -51.4375 L 22.609375 -51.4375 C 23.285156 -55.207031 25.054688 -58.128906 27.921875 -60.203125 C 30.785156 -62.273438 34.476562 -63.3125 39 -63.3125 C 45.257812 -63.3125 50.234375 -61.273438 53.921875 -57.203125 C 57.617188 -53.128906 59.46875 -47.628906 59.46875 -40.703125 L 59.46875 0 L 45.328125 0 L 45.328125 -39 C 45.328125 -42.769531 44.3125 -45.726562 42.28125 -47.875 C 40.25 -50.019531 37.460938 -51.09375 33.921875 -51.09375 C 30.296875 -51.09375 27.445312 -49.976562 25.375 -47.75 C 23.300781 -45.53125 22.265625 -42.5 22.265625 -38.65625 L 22.265625 0 Z M 8.140625 0 "/></g></g></g><g fill="#79a5fc" fill-opacity="1"><g transform="translate(693.201466, 446.221984)"><g><path d="M 33.921875 1.125 C 29.847656 1.125 26.132812 0.539062 22.78125 -0.625 C 19.425781 -1.789062 16.578125 -3.425781 14.234375 -5.53125 C 11.898438 -7.644531 10.09375 -10.207031 8.8125 -13.21875 C 7.53125 -16.238281 6.890625 -19.59375 6.890625 -23.28125 L 6.890625 -39 C 6.890625 -42.695312 7.53125 -46.050781 8.8125 -49.0625 C 10.09375 -52.070312 11.898438 -54.632812 14.234375 -56.75 C 16.578125 -58.863281 19.425781 -60.484375 22.78125 -61.609375 C 26.132812 -62.742188 29.847656 -63.3125 33.921875 -63.3125 C 37.984375 -63.3125 41.671875 -62.722656 44.984375 -61.546875 C 48.304688 -60.378906 51.132812 -58.738281 53.46875 -56.625 C 55.800781 -54.519531 57.609375 -51.957031 58.890625 -48.9375 C 60.171875 -45.925781 60.8125 -42.578125 60.8125 -38.890625 L 60.8125 -27.578125 L 20.90625 -27.578125 L 20.90625 -23.515625 C 20.90625 -19.367188 22.054688 -16.125 24.359375 -13.78125 C 26.660156 -11.445312 29.847656 -10.28125 33.921875 -10.28125 C 37.003906 -10.28125 39.617188 -10.75 41.765625 -11.6875 C 43.921875 -12.632812 45.445312 -14.015625 46.34375 -15.828125 L 60.25 -15.828125 C 59.570312 -13.265625 58.441406 -10.925781 56.859375 -8.8125 C 55.273438 -6.707031 53.332031 -4.921875 51.03125 -3.453125 C 48.738281 -1.984375 46.140625 -0.851562 43.234375 -0.0625 C 40.335938 0.726562 37.234375 1.125 33.921875 1.125 Z M 46.921875 -37.078125 L 46.921875 -38.890625 C 46.921875 -43.035156 45.785156 -46.253906 43.515625 -48.546875 C 41.253906 -50.847656 38.054688 -52 33.921875 -52 C 29.847656 -52 26.660156 -50.847656 24.359375 -48.546875 C 22.054688 -46.253906 20.90625 -43.070312 20.90625 -39 L 20.90625 -37.078125 Z M 46.921875 -37.078125 "/></g></g></g></svg>