<svg xmlns="http://www.w3.org/2000/svg" xmlns:xlink="http://www.w3.org/1999/xlink" width="1080" zoomAndPan="magnify" viewBox="0 0 810 809.999993" height="1080" preserveAspectRatio="xMidYMid meet" version="1.0"><defs><g/></defs><g fill="#ff967b" fill-opacity="1"><g transform="translate(112.492743, 589.49999)"><g><path d="M 150 5 C 132.332031 5 116.082031 2.664062 101.25 -2 C 86.414062 -6.664062 73.664062 -13.414062 63 -22.25 C 52.332031 -31.082031 43.914062 -41.664062 37.75 -54 C 31.582031 -66.332031 28.164062 -80.164062 27.5 -95.5 L 91.5 -95.5 C 92.164062 -81.164062 97.914062 -69.914062 108.75 -61.75 C 119.582031 -53.582031 133.832031 -49.5 151.5 -49.5 C 169.832031 -49.5 184.082031 -53.664062 194.25 -62 C 204.414062 -70.332031 209.5 -81.5 209.5 -95.5 C 209.5 -107.832031 205.664062 -118.5 198 -127.5 C 190.332031 -136.5 179.5 -143.164062 165.5 -147.5 L 127.5 -158.5 C 65.5 -175.5 34.5 -211.164062 34.5 -265.5 C 34.5 -280.5 37.25 -294.164062 42.75 -306.5 C 48.25 -318.832031 56 -329.414062 66 -338.25 C 76 -347.082031 88.164062 -353.832031 102.5 -358.5 C 116.832031 -363.164062 133 -365.5 151 -365.5 C 185 -365.5 212.414062 -356.75 233.25 -339.25 C 254.082031 -321.75 265.332031 -297.664062 267 -267 L 203.5 -267 C 202.832031 -280.664062 197.5 -291.332031 187.5 -299 C 177.5 -306.664062 164.832031 -310.5 149.5 -310.5 C 133.164062 -310.5 120.332031 -306.664062 111 -299 C 101.664062 -291.332031 97 -281.164062 97 -268.5 C 97 -244.5 111.5 -228.332031 140.5 -220 L 180.5 -209 C 210.5 -200.664062 233.332031 -187.082031 249 -168.25 C 264.664062 -149.414062 272.5 -126.164062 272.5 -98.5 C 272.5 -82.832031 269.582031 -68.664062 263.75 -56 C 257.914062 -43.332031 249.664062 -32.5 239 -23.5 C 228.332031 -14.5 215.5 -7.5 200.5 -2.5 C 185.5 2.5 168.664062 5 150 5 Z M 150 5 "/></g></g></g><g fill="#79a5fc" fill-opacity="1"><g transform="translate(397.492733, 589.49999)"><g><path d="M 255 -360 L 255 -302 L 106.5 -56 L 106.5 -55 L 142 -57 L 260.5 -57 L 260.5 0 L 39.5 0 L 39.5 -57.5 L 187.5 -304 L 187.5 -305 L 151.5 -303 L 43.5 -303 L 43.5 -360 Z M 255 -360 "/></g></g></g></svg>